<?xml version="1.0" standalone="no"?>
<!DOCTYPE svg PUBLIC "-//W3C//DTD SVG 20010904//EN"
 "http://www.w3.org/TR/2001/REC-SVG-20010904/DTD/svg10.dtd">
<svg version="1.0" xmlns="http://www.w3.org/2000/svg"
 width="64.000000pt" height="64.000000pt" viewBox="0 0 64.000000 64.000000"
 preserveAspectRatio="xMidYMid meet">

<g transform="translate(0.000000,64.000000) scale(0.100000,-0.100000)"
fill="#000000" stroke="none">
<path d="M236 308 c-22 -32 -5 -50 34 -35 35 13 41 28 8 19 -17 -4 -20 -2 -15
11 10 26 -10 30 -27 5z m19 -18 c3 -5 1 -10 -4 -10 -6 0 -11 5 -11 10 0 6 2
10 4 10 3 0 8 -4 11 -10z"/>
<path d="M210 260 c0 -5 5 -10 11 -10 5 0 7 5 4 10 -3 6 -8 10 -11 10 -2 0 -4
-4 -4 -10z"/>
<path d="M274 253 c-5 -9 -23 -16 -40 -17 -21 -1 -31 -6 -30 -16 1 -8 -7 -14
-16 -14 -14 1 -15 -2 -5 -20 19 -34 39 -56 51 -56 6 0 3 5 -6 11 -24 14 -23
46 2 54 19 6 66 62 58 70 -2 2 -8 -3 -14 -12z"/>
<path d="M171 234 c0 -11 3 -14 6 -6 3 7 2 16 -1 19 -3 4 -6 -2 -5 -13z"/>
<path d="M258 148 c-4 -23 -2 -28 14 -28 11 0 17 4 14 9 -4 5 0 12 6 14 8 4 7
6 -4 6 -9 1 -18 7 -21 14 -2 6 -6 0 -9 -15z"/>
</g>
</svg>
